<?xml version="1.0" standalone="no"?><!DOCTYPE svg PUBLIC "-//W3C//DTD SVG 1.1//EN" "http://www.w3.org/Graphics/SVG/1.1/DTD/svg11.dtd"><svg t="1652785009213" class="icon" viewBox="0 0 1024 1024" version="1.1" xmlns="http://www.w3.org/2000/svg" p-id="2752" width="24" height="24" xmlns:xlink="http://www.w3.org/1999/xlink"><defs><style type="text/css"></style></defs><path d="M0 255.744A85.333333 85.333333 0 0 1 85.546667 170.666667h852.906666A85.333333 85.333333 0 0 1 1024 255.744v512.512A85.333333 85.333333 0 0 1 938.453333 853.333333H85.546667A85.333333 85.333333 0 0 1 0 768.256V255.744z m85.333333 0v512.512c0-0.298667 0-0.256 0.213334-0.256h852.906666c0.256 0 0.213333 0 0.213334 0.256V255.744c0 0.298667 0 0.256-0.213334 0.256H85.546667C85.290667 256 85.333333 256 85.333333 255.744zM128 426.666667V341.333333l384 128 384-128v85.333334l-384 128-384-128z" p-id="2753" fill="#c1c1c1"></path></svg>